<?xml version="1.0" standalone="no"?> <!DOCTYPE svg PUBLIC "-//W3C//DTD SVG 1.0//EN" "http://www.w3.org/TR/2001/REC-SVG-20010904/DTD/svg10.dtd" > <svg xmlns="http://www.w3.org/2000/svg" width="100%" height="100%">
<defs >
<font id="jura-regular" horiz-adv-x="471" ><font-face
    font-family="Jura"
    units-per-em="1000"
    panose-1="0 0 0 0 0 0 0 0 0 0"
    ascent="782"
    descent="-218"
    alphabetic="0" />
<missing-glyph horiz-adv-x="250" />
<glyph unicode=" " glyph-name="space" horiz-adv-x="250" />
<glyph unicode="!" glyph-name="exclam" horiz-adv-x="163" d="M88 137Q86 117 64 117Q42 117 40 137L20 625Q18 664 64 664Q109 664 108 625L88 137ZM108 39Q108 0 64 0Q20 0 20 39Q20 78 64 78Q86 78 97 68T108 39Z" />
<glyph unicode="&quot;" glyph-name="quotedbl" horiz-adv-x="268" d="M213 679Q211 656 208 632T200 589T187 557T171 544Q162 544 155 556T143 588T133 632T125 679Q125 723 168 723Q197 723 205 709T213 679ZM108 679Q106 656 103 632T95 589T82 557T66 544Q57
544 50 556T38 588T28 632T20 679Q20 723 63 723Q92 723 100 709T108 679Z" />
<glyph unicode="#" glyph-name="numbersign" horiz-adv-x="629" d="M574 436Q574 434 574 433T573 429L568 400Q562 380 543 380H420L405 283H539Q554 283 554 272Q554 265 553 264L549 234Q543 215 524 215H394L363 20Q360 0 339 0H319Q303 0 303 13Q303 19 304
20L335 215H218L187 20Q184 0 163 0H143Q128 0 128 12Q128 19 129 20L159 215H36Q20 215 20 228Q20 234 21 235L26 264Q32 284 51 284H170L185 381H55Q39 381 39 393Q39 399 40 400L45 430Q51 449 70 449H196L227 645Q230 664 251 664H271Q286 664 286 653Q286
646 285 645L255 449H372L403 645Q406 664 427 664H447Q462 664 462 653Q462 646 461 645L430 449H558Q574 449 574 436ZM361 380H244L229 284H346L361 380Z" />
<glyph unicode="$" glyph-name="dollar" horiz-adv-x="464" d="M409 186Q409 111 377 65T288 4L271 0V-32Q271 -51 251 -51Q232 -51 232 -31V-6Q227 -7 221 -7T210 -7H201V-32Q201 -51 181 -51Q162 -51 162 -31V-3Q145 -2 126 3Q80 14 28 36L20 132V136Q20 153
33 153Q54 153 60 133L73 94Q82 85 94 77T123 60Q131 56 140 53T162 47V323Q134 337 111 353T71 388Q28 434 28 498Q28 561 59 601T142 657L162 663V685Q162 705 181 705Q201 705 201 685V668Q205 669 209 669T217 669Q231 669 232 668V685Q232 705 251 705Q271
705 271 685V663Q276 662 280 662T290 659Q328 651 370 629L379 533Q379 522 376 517T361 512Q345 512 339 532L326 571Q316 580 305 587T282 602L271 608V357Q335 327 370 289Q409 245 409 186ZM232 616Q231 617 220 617Q215 617 211 617T201 616V389Q208 385
216 382T232 374V616ZM162 415V606Q154 602 147 598T134 586Q106 558 106 508Q106 469 142 432L162 415ZM332 176Q332 209 299 244Q294 250 287 256T271 268V56Q281 61 288 67T301 78Q332 112 332 176ZM232 291Q225 295 217 298T201 306V44H204Q212 44 218 44T232
45V291Z" />
<glyph unicode="%" glyph-name="percent" horiz-adv-x="692" d="M307 498Q307 426 270 382T163 337Q131 337 105 349T60 382T31 432T20 498Q20 555 42 597T107 656Q133 667 163 667Q194 667 220 656T266 622T296 569T307 498ZM592 663L117 -1H62L540 663H592ZM637
158Q637 86 600 42T493 -3Q461 -3 435 9T390 42T361 92T350 158Q350 215 372 257T437 316Q463 327 493 327Q524 327 550 316T596 282T626 229T637 158ZM244 496Q244 556 225 590T164 625Q149 625 131 617Q106 606 95 575T83 498Q83 447 102 414T163 381Q202 381
223 411T244 496ZM574 156Q574 216 555 250T494 285Q479 285 461 277Q436 266 425 235T413 158Q413 107 432 74T493 41Q532 41 553 71T574 156Z" />
<glyph unicode="&amp;" glyph-name="ampersand" horiz-adv-x="634" d="M579 20Q579 0 562 0H488Q472 0 463 12L403 93Q364 0 231 0Q183 0 144 15T78 59T35 125T20 208Q20 244 32 277T64 338T111 387T168 420Q135 466 135 519Q135 588 171 626T270 664Q296 664
315 655T347 630T366 595T372 556Q372 520 348 489T262 425L408 215L428 288H467L432 181L509 74Q513 70 517 66T528 59L551 47Q562 41 570 35T579 20ZM312 546Q312 588 297 608T261 628Q230 628 218 609T205 555Q205 529 213 505T237 454Q312 484 312 546ZM193
386Q178 382 163 369T135 336T115 290T107 231Q107 199 119 167T151 110T197 70T254 54Q305 54 336 73T377 122L193 386Z" />
<glyph unicode="&apos;" glyph-name="quotesingle" horiz-adv-x="163" d="M108 679Q106 656 103 632T95 589T82 557T66 544Q57 544 50 556T38 588T28 632T20 679Q20 723 63 723Q92 723 100 709T108 679Z" />
<glyph unicode="(" glyph-name="parenleft" horiz-adv-x="207" d="M152 -39Q152 -59 138 -59Q122 -59 113 -39Q20 160 20 361Q20 561 113 762Q122 781 138 781Q152 781 152 762Q98 561 98 361Q98 160 152 -39Z" />
<glyph unicode=")" glyph-name="parenright" horiz-adv-x="208" d="M153 363Q153 155 59 -39Q50 -59 35 -59Q20 -59 20 -39Q74 160 74 361Q74 561 20 762Q20 781 35 781Q51 781 60 762Q153 562 153 363Z" />
<glyph unicode="*" glyph-name="asterisk" horiz-adv-x="281" d="M226 654Q226 643 221 639T203 630T172 621T125 605Q158 591 173 587T194 581T203 579T214 574Q225 563 225 554Q225 545 218 537T202 528Q192 528 188 531T177 542T160 566T124 604Q133 565 138
550T145 529L148 523Q149 522 149 513Q149 488 125 488Q100 488 100 512Q100 522 100 523T103 529T110 550T123 603Q96 576 86 564T72 546T68 539T59 534Q51 528 44 528Q36 528 28 537T20 557Q20 567 25 571T43 579T75 588T122 605Q94 617 79 621T56 628T43 631T33
637Q21 644 21 655Q21 666 29 674T44 682Q53 682 57 680T67 671T84 648T122 606Q115 640 111 655T103 678T99 687T98 698Q98 723 122 723Q146 723 146 699Q146 691 145 686T140 673T133 649T124 607V606Q146 628 157 642T175 666T187 678T203 682Q212 682 219 673T226
654Z" />
<glyph unicode="+" glyph-name="plus" horiz-adv-x="459" d="M398 231Q390 225 379 225L236 228L239 88Q239 76 233 70Q227 64 216 64T198 71Q191 78 191 90L188 228L44 230Q32 231 27 236Q20 243 20 256Q20 267 26 273Q33 279 44 279L187 277L184 424Q184 437
190 442Q196 448 207 448T226 441Q232 433 232 423L235 275L378 273Q383 273 388 273T397 268Q403 262 403 250T398 231Z" />
<glyph unicode="," glyph-name="comma" horiz-adv-x="172" d="M117 20Q117 7 114 -7T103 -32T84 -50T56 -58Q32 -58 32 -42Q32 -35 37 -32T48 -27Q50 -27 51 -27T54 -26Q65 -22 68 -16T73 -3H68Q20 -3 20 38Q20 79 68 79Q117 79 117 38V20Z" />
<glyph unicode="-" glyph-name="hyphen" horiz-adv-x="367" d="M313 265Q313 253 306 247T288 241H44Q18 241 20 265Q22 288 45 288H288Q313 288 313 265Z" />
<glyph unicode="." glyph-name="period" horiz-adv-x="173" d="M118 39Q118 0 69 0Q20 0 20 39Q20 78 69 78Q92 78 105 68T118 39Z" />
<glyph unicode="/" glyph-name="slash" horiz-adv-x="348" d="M293 723L79 0H20L235 723H293Z" />
<glyph unicode="0" glyph-name="zero" horiz-adv-x="518" d="M463 274Q463 0 247 0H236Q20 0 20 274Q20 547 236 547H247Q463 547 463 274ZM382 274Q382 496 241 507Q101 496 101 274Q101 52 241 41Q382 51 382 274Z" />
<glyph unicode="1" glyph-name="one" horiz-adv-x="290" d="M235 15Q235 0 216 0H59Q40 0 40 15Q40 26 49 32T69 44T89 55T98 73V463Q98 478 69 478H49Q20 478 20 492Q20 509 50 517L157 546Q177 546 177 526V73Q177 62 186 56T206 44T226 33T235 15Z" />
<glyph unicode="2" glyph-name="two" horiz-adv-x="447" d="M377 28Q373 0 352 0H40Q20 0 20 20V54Q20 72 46 95L226 254Q253 278 267 306T281 370Q281 430 256 454T167 479Q110 479 50 463Q49 462 43 462Q29 462 20 478Q20 502 40 507Q120 548 192 548Q235 548
269 537T325 504T359 455T370 393Q368 339 335 292T240 190L171 129L120 87Q111 79 111 76Q111 73 118 73H304Q314 73 322 82T337 102T353 123T372 132Q392 132 392 113L377 28Z" />
<glyph unicode="3" glyph-name="three" horiz-adv-x="451" d="M396 72Q396 31 383 -5T345 -67T281 -108T192 -123Q177 -123 148 -119T91 -107T41 -86T20 -56Q24 -37 44 -37Q136 -60 183 -60Q314 -60 314 80Q314 134 286 163T206 192H156Q137 192 137 215V232Q137
251 156 251H206Q251 251 275 277T300 348Q300 376 292 401T268 445T228 475T173 486Q119 486 60 461Q41 461 35 481Q35 497 53 509T95 530T145 542T185 547Q232 547 268 531T328 488T365 425T378 349Q378 259 323 225Q318 223 318 221Q318 217 323 215Q396 179
396 72Z" />
<glyph unicode="4" glyph-name="four" horiz-adv-x="545" d="M490 73Q490 54 470 54H411Q392 54 392 34V-98Q392 -117 372 -117H333Q313 -117 313 -98V34Q313 54 294 54H40Q20 54 20 73V98Q20 117 30 131L293 520L303 534Q313 547 333 547H372Q392 547 392 528V137Q392
117 411 117H470Q490 117 490 98V73ZM313 440Q313 452 310 452L306 448L97 128Q95 126 95 122Q95 117 108 117H294Q313 117 313 137V440Z" />
<glyph unicode="5" glyph-name="five" horiz-adv-x="470" d="M415 108Q415 58 398 17T351 -55T277 -101T180 -118Q165 -118 139 -115T86 -105T40 -87T20 -59Q20 -39 40 -39Q104 -54 155 -54Q237 -54 284 -13T331 107Q331 137 322 163T287 209T219 239T109 250Q97
250 84 250T57 249Q40 249 42 269L59 527Q61 547 78 547H353Q372 547 372 528V498Q372 487 367 483T353 479H127Q108 479 107 464L98 313H121Q203 313 259 298T350 256T400 191T415 108Z" />
<glyph unicode="6" glyph-name="six" horiz-adv-x="491" d="M436 220Q436 167 419 126T373 57T306 15T226 0Q184 0 147 15T81 64T37 147T20 269Q20 349 33 421T76 547T156 633T280 665Q329 665 377 649Q396 643 396 625Q392 609 379 609Q373 609 372 610Q328 619
294 619Q251 619 221 604T170 567T139 519T122 471T115 433T113 416Q113 409 119 409Q123 409 130 413Q174 429 231 429Q270 429 307 416T372 377T418 312T436 220ZM355 224Q355 253 348 280T326 329T288 363T232 376Q185 376 121 352Q110 345 106 322T101 276V251Q101
58 245 61Q296 62 325 104T355 224Z" />
<glyph unicode="7" glyph-name="seven" horiz-adv-x="485" d="M430 488Q430 470 422 450L206 -107Q200 -117 191 -117H113Q104 -117 104 -110Q104 -105 108 -98L362 449Q365 455 365 460Q365 469 352 469H98Q87 469 81 460T69 440T57 419T40 410Q20 410 20 430V527Q20
547 40 547H411Q430 547 430 527V488Z" />
<glyph unicode="8" glyph-name="eight" horiz-adv-x="496" d="M441 191Q441 149 425 114T381 52T315 10T231 -5Q184 -5 145 10T78 53T35 116T20 195Q20 294 104 350Q110 353 110 356Q110 358 104 360Q45 416 45 492Q45 528 57 559T93 613T151 650T230 664Q273
664 307 651T366 615T404 560T417 493Q417 415 353 360Q348 358 348 356Q348 352 353 350Q441 296 441 191ZM338 493Q338 547 312 576T231 605Q174 605 147 574T120 489Q120 437 147 407T228 377Q286 377 312 409T338 493ZM352 189Q352 246 319 282T228 319Q174
319 142 285T109 193Q109 133 142 96T231 59Q286 59 319 94T352 189Z" />
<glyph unicode="9" glyph-name="nine" horiz-adv-x="491" d="M436 279Q436 191 422 118T376 -7T295 -89T177 -118Q124 -118 80 -102Q61 -96 61 -77Q62 -62 77 -62Q100 -62 121 -66T160 -71Q203 -71 233 -57T283 -22T316 25T334 74T342 113T344 133Q344 139 338
139Q334 139 327 135Q271 118 226 118Q185 118 148 131T83 170T37 235T20 327Q20 380 36 421T82 490T151 532T235 547Q275 547 311 532T376 483T420 400T436 279ZM355 294Q355 394 320 440T212 486Q161 486 131 445T101 323Q101 294 108 267T131 219T169 184T224
171Q277 171 336 196Q341 198 344 205T350 223T354 245T355 268V294Z" />
<glyph unicode=":" glyph-name="colon" horiz-adv-x="173" d="M118 231Q118 188 69 188Q20 188 20 231Q20 273 69 273Q118 273 118 231ZM118 42Q118 0 69 0Q20 0 20 42Q20 85 69 85Q118 85 118 42Z" />
<glyph unicode=";" glyph-name="semicolon" horiz-adv-x="172" d="M117 230Q117 188 68 188Q20 188 20 230Q20 273 68 273Q117 273 117 230ZM117 24Q117 10 114 -4T103 -31T84 -50T56 -58Q32 -58 32 -41Q32 -34 37 -31T48 -26Q48 -25 49 -25Q53 -25 54 -24Q65
-21 68 -14T73 -1H68Q20 -1 20 42Q20 85 68 85Q117 85 117 42V24Z" />
<glyph unicode="&lt;" glyph-name="less" horiz-adv-x="377" d="M322 540Q322 536 319 530L139 285Q136 279 136 273Q136 266 139 262L317 18Q321 11 321 6Q321 0 313 0H264Q248 0 235 10L24 264Q20 268 20 275Q20 280 23 286L240 537Q249 547 264 547H313Q322
547 322 540Z" />
<glyph unicode="=" glyph-name="equal" horiz-adv-x="456" d="M401 338Q401 315 376 315H45Q33 315 26 321T20 338Q22 361 45 361H376Q401 361 401 338ZM401 205L400 202Q400 198 398 196L399 199V197L396 192L392 189L388 188Q386 186 383 186H379H376H45H37L33
188Q32 189 31 189Q28 189 27 190L24 194Q20 198 20 205V209V212Q20 229 36 231Q37 232 45 232H376H380L390 229Q396 227 397 223Q399 221 399 219L400 217Q401 216 401 212V209V205Z" />
<glyph unicode="&gt;" glyph-name="greater" horiz-adv-x="379" d="M324 275Q324 268 320 264L109 10Q96 0 79 0H30Q21 0 21 6Q21 10 26 18L203 262Q207 266 207 274Q207 279 204 285L23 530Q20 534 20 539Q20 547 30 547L79 546Q96 546 104 537L321 285Q324 280
324 275Z" />
<glyph unicode="?" glyph-name="question" horiz-adv-x="434" d="M379 532Q379 472 351 425T274 346Q216 307 216 253L215 118H157L156 254Q156 332 225 386Q293 439 293 525Q293 591 260 628T160 665Q119 665 44 645Q43 644 36 644Q23 644 20 659Q20 674 40 686T88
706T144 718T186 723Q237 723 273 708T333 666T368 605T379 532ZM230 39Q230 0 186 0Q142 0 142 39Q142 78 186 78Q208 78 219 68T230 39Z" />
<glyph unicode="@" glyph-name="at" horiz-adv-x="818" d="M763 293Q763 178 724 119T617 59Q514 59 490 107Q414 67 362 67Q329 67 304 81T261 122T235 185T226 264Q226 310 237 350T268 418T318 463T385 480Q424 480 476 457Q475 458 475 464Q475 487 512 487Q553
487 553 462V156Q553 120 615 120Q682 120 682 288Q682 348 667 405T617 506T530 577T400 604Q344 604 292 582T198 517T131 409T106 262Q106 205 127 149T190 48T296 -24T446 -52Q494 -52 548 -45T665 -20Q666 -19 675 -19Q691 -19 696 -39Q693 -48 686 -56T666
-68Q597 -90 536 -100T419 -110Q325 -110 251 -79T126 3T47 121T20 257Q20 354 51 430T134 560T255 640T397 668Q458 668 512 651T611 604T687 537T734 457Q749 415 756 374T763 293ZM475 405Q425 420 391 420Q362 420 344 409T315 380T301 336T297 284Q297 259
301 232T315 183T343 146T389 131Q417 131 475 151V405Z" />
<glyph unicode="A" glyph-name="A" horiz-adv-x="640" d="M605 15Q605 0 586 0H431Q410 0 410 15Q410 22 418 27T436 36T454 45T463 56Q463 61 462 62L427 177Q421 195 403 195H185Q160 195 156 177L125 63Q124 62 124 57Q124 56 123 55Q123 49 131 45T149 37T167
28T176 15Q176 0 156 0H19Q0 0 0 15Q0 24 8 28T28 37T50 48T65 65L257 653Q263 673 284 673H322Q341 673 347 655L541 63Q547 44 576 39Q605 28 605 15ZM401 252Q400 252 400 254Q400 256 400 257T399 262L301 563Q297 573 294 573Q290 573 287 563L185 262Q183
252 183 253Q183 244 197 244H392Q401 244 401 252Z" />
<glyph unicode="B" glyph-name="B" horiz-adv-x="553" d="M498 186Q498 0 270 0H39Q20 0 20 15Q20 24 29 29T49 38T69 47T78 63L79 595Q79 606 70 612T50 624T29 634T20 649Q20 664 39 664H220Q458 664 458 488Q458 393 388 350Q498 314 498 186ZM370 488Q370
610 220 613L173 614Q155 614 155 598V383Q155 363 174 363H237Q304 363 337 395T370 488ZM420 182Q420 313 270 313H172Q155 313 155 296V68Q155 50 175 50H270Q420 50 420 182Z" />
<glyph unicode="C" glyph-name="C" horiz-adv-x="524" d="M469 34Q389 -5 306 -5Q20 -5 20 332Q20 504 91 586T306 669Q393 669 469 629V542Q469 513 455 513Q439 513 430 542L420 571Q392 620 315 620Q269 620 230 602T162 547T117 457T100 332Q100 261 116 207T162
117T230 63T315 44Q392 44 420 93L430 122Q439 151 455 151Q469 151 469 122V34Z" />
<glyph unicode="D" glyph-name="D" horiz-adv-x="592" d="M537 332Q537 0 264 0H39Q20 0 20 15Q20 24 29 29T49 38T69 47T78 63V600Q78 610 69 616T49 626T29 635T20 649Q20 664 40 664H263Q537 664 537 332ZM454 332Q454 474 404 544T263 615H176Q156 615 156
597V69Q156 49 178 49H264Q355 49 404 119T454 332Z" />
<glyph unicode="E" glyph-name="E" horiz-adv-x="553" d="M498 21Q498 0 477 0H41Q20 0 20 15Q20 24 29 29T49 38T69 47T78 63L79 600Q79 611 70 616T50 624T29 633T20 649Q20 664 39 664H478Q498 664 498 644V576Q498 557 483 557Q474 557 469 566T460 586T450
606T436 615H175Q156 615 156 597V381Q156 361 177 361H290Q299 361 304 370T314 390T324 411T338 420Q353 420 353 400V276Q353 254 338 254Q329 254 324 263T315 283T305 304T290 313H177Q156 313 156 291V66Q156 49 173 49H433Q444 49 450 58T460 78T470 98T484
107Q498 107 498 88V21Z" />
<glyph unicode="F" glyph-name="F" horiz-adv-x="533" d="M498 576Q498 557 484 557Q475 557 470 566T461 586T450 606T434 615H179Q156 615 156 596V380Q156 361 178 361H291Q300 361 305 370T314 390T324 411T338 420Q353 420 353 401V272Q353 254 338 254Q329
254 324 263T315 283T305 304T290 313H177Q156 313 156 293V62Q156 53 165 48T185 38T206 29T215 15Q215 0 195 0H41Q20 0 20 15Q20 23 29 28T49 37T70 47T79 62V603Q79 612 70 616T50 625T29 635T20 649Q20 664 39 664H483Q498 664 498 645V576Z" />
<glyph unicode="G" glyph-name="G" horiz-adv-x="598" d="M543 278Q543 269 534 264T514 255T494 245T485 229V39Q460 29 438 21T394 8T348 -1T295 -4Q20 -4 20 332Q20 668 295 668Q328 668 354 665T403 657T445 643T485 625V529Q485 508 470 508Q455 508 446
537L436 566Q423 590 396 604T309 619Q261 619 222 602T154 549T109 459T93 332Q93 260 109 206T153 116T221 63T308 45Q360 45 385 59T410 98V231Q410 240 401 245T381 254T361 264T352 278Q352 293 372 293H525Q543 293 543 278Z" />
<glyph unicode="H" glyph-name="H" horiz-adv-x="661" d="M606 15Q606 0 584 0H431Q410 0 410 15Q410 24 419 28T439 37T460 47T469 61V296Q469 313 453 313H176Q156 313 156 293V62Q156 52 165 47T185 38T206 29T215 15Q215 0 197 0H41Q20 0 20 15Q20 24 29 29T49
38T70 47T79 62V602Q79 611 70 616T50 626T29 635T20 649Q20 664 40 664H197Q215 664 215 649Q215 640 206 635T186 626T165 617T156 601V382Q156 361 176 361H453Q469 361 469 379V604Q469 612 460 617T440 626T419 635T410 649Q410 664 432 664H586Q605 664 605
649Q605 640 596 635T576 626T556 616T547 601V62Q547 43 577 39Q606 30 606 15Z" />
<glyph unicode="I" glyph-name="I" horiz-adv-x="271" d="M216 15Q214 0 195 0H40Q20 0 20 15Q20 26 29 31T49 39T70 46T79 62V604Q79 612 70 617T50 626T29 635T20 649Q20 664 41 664H195Q215 664 215 649Q215 634 186 625Q156 620 156 601V63Q156 52 165 47T186
39T206 31T216 15Z" />
<glyph unicode="J" glyph-name="J" horiz-adv-x="358" d="M303 649Q303 640 294 635T274 626T253 617T244 601V137Q244 95 237 68T216 26T179 4T128 -3Q112 -3 94 -1T59 6T31 20T20 44Q20 64 33 64Q51 64 66 60T96 55Q166 55 166 117V600Q166 621 138 625Q108
634 108 649Q108 664 128 664H284Q303 664 303 649Z" />
<glyph unicode="K" glyph-name="K" horiz-adv-x="592" d="M557 15Q557 0 537 0H459Q439 0 422 14L174 286Q165 297 160 297Q156 297 156 288V61Q156 52 165 47T186 38T206 29T216 15Q214 0 196 0H40Q20 0 20 15Q20 24 29 29T49 38T70 47T79 62V603Q79 612 70 616T50
625T29 635T20 649Q20 664 39 664H196Q215 664 215 649Q215 640 206 635T186 626T165 617T156 602V402Q156 392 160 392Q165 392 175 402L365 612Q368 615 368 619Q368 622 363 624T350 630T338 637T332 649Q332 664 353 664H479Q499 664 499 649Q499 640 490 635T468
626T443 617T426 605L224 382Q218 374 218 368Q218 358 228 348L484 62Q493 51 506 46T530 37T549 29T557 15Z" />
<glyph unicode="L" glyph-name="L" horiz-adv-x="514" d="M479 17Q479 0 459 0H40Q20 0 20 15Q20 24 29 29T49 38T70 47T79 62V601Q79 611 70 616T50 626T29 636T20 650Q20 664 41 664H197Q215 664 215 650Q215 641 206 636T186 627T165 617T156 603V69Q156 50
176 50H417Q426 50 431 59T440 79T450 100T464 109Q479 109 479 92V17Z" />
<glyph unicode="M" glyph-name="M" horiz-adv-x="778" d="M723 15Q723 0 702 0H549Q528 0 528 15Q528 24 537 29T557 38T577 47T586 63V528Q586 535 584 535Q581 535 573 515L394 71Q380 39 362 39Q341 39 329 72L150 534Q141 555 139 555Q137 555 137 546V64Q137
53 146 48T166 38T187 29T196 15Q196 0 176 0H40Q20 0 20 15Q20 24 29 29T49 38T70 47T79 62V602Q79 611 70 616T50 626T29 635T20 649Q20 664 41 664H164Q183 664 195 633L370 170Q373 162 376 162Q379 162 382 170L573 633Q586 664 607 664H705Q723 664 723 649Q723
634 693 625Q664 620 664 600V64Q664 53 673 48T693 38T714 29T723 15Z" />
<glyph unicode="N" glyph-name="N" horiz-adv-x="621" d="M566 649Q566 640 557 635T537 626T517 617T508 602V20Q508 0 487 0H441Q420 0 410 19L150 506Q144 518 140 518Q137 518 137 508V63Q137 53 146 48T166 38T187 29T196 15Q196 0 177 0H40Q20 0 20 15Q20
24 29 29T49 38T70 47T79 63V595Q79 606 70 612T50 624T29 634T20 649Q20 664 40 664H138Q158 664 168 645L437 150Q442 139 446 139Q449 139 449 150V601Q449 620 420 625Q390 634 390 649Q390 664 411 664H545Q566 664 566 649Z" />
<glyph unicode="O" glyph-name="O" horiz-adv-x="612" d="M557 332Q557 164 491 80T295 -4H282Q20 -4 20 332Q20 668 282 668H295Q425 668 491 584T557 332ZM479 332Q479 467 427 539T289 619Q203 612 151 540T98 332Q98 197 150 125T289 45Q374 52 426 124T479 332Z" />
<glyph unicode="P" glyph-name="P" horiz-adv-x="514" d="M459 486Q459 395 402 348T230 301H176Q156 301 156 283V63Q156 43 186 39Q215 34 215 15Q215 0 196 0H40Q20 0 20 15Q20 26 29 31T49 39T70 47T79 63V602Q79 611 70 616T50 626T29 635T20 649Q20 664
40 664H233Q459 664 459 486ZM381 482Q381 548 344 579T231 613L179 615Q156 617 156 597V368Q156 350 175 350L231 351Q306 353 343 384T381 482Z" />
<glyph unicode="Q" glyph-name="Q" horiz-adv-x="612" d="M557 332Q557 266 544 212T508 118T456 53T395 18Q387 15 387 11Q387 7 392 2Q457 -39 530 -39Q547 -39 547 -58Q547 -78 530 -78Q470 -78 415 -63T308 -13Q299 -7 294 -5T282 -4Q20 -4 20 332Q20 668
282 668H295Q425 668 491 584T557 332ZM479 332Q479 467 427 539T289 619Q203 612 151 540T98 332Q98 197 150 125T289 45Q374 52 426 124T479 332Z" />
<glyph unicode="R" glyph-name="R" horiz-adv-x="553" d="M498 15Q498 0 477 0H418Q397 0 387 19L231 284Q220 301 205 301H176Q156 301 156 283V63Q156 43 186 39Q215 30 215 15Q215 0 196 0H40Q20 0 20 15Q20 24 29 29T49 38T70 47T79 63V602Q79 611 70 616T50
626T29 635T20 649Q20 664 40 664H244Q344 664 401 619T459 486Q459 449 445 418T408 363T359 326T308 312Q298 309 298 302Q298 295 302 291L440 59Q445 50 455 45T474 36T491 28T498 15ZM381 482Q381 548 344 579T231 613L179 615Q156 617 156 597V368Q156 350
175 350L231 351Q306 353 343 384T381 482Z" />
<glyph unicode="S" glyph-name="S" horiz-adv-x="464" d="M409 186Q409 136 394 100T352 40T289 5T210 -7Q172 -7 127 3T28 36L20 132V136Q20 153 33 153Q54 153 60 133L73 94Q91 76 123 60T204 44Q270 44 301 78T332 176Q332 210 300 244T191 310Q115 342 72
388T28 498Q28 539 42 571T82 624T142 657T217 669Q252 669 290 660T370 629L379 533Q379 522 376 517T361 512Q345 512 339 532L326 571Q308 588 282 602T220 617Q162 617 134 587T106 508Q106 469 142 433T255 364Q331 332 370 289T409 186Z" />
<glyph unicode="T" glyph-name="T" horiz-adv-x="514" d="M479 576Q479 557 464 557Q455 557 450 566T441 586T431 606T415 615H303Q284 615 284 595V64Q284 43 314 39Q343 28 343 15Q343 0 323 0H167Q148 0 148 15Q148 23 157 28T177 37T198 47T207 63V595Q207
615 186 615H64Q54 615 49 606T39 586T29 566T15 557Q0 557 0 576V645Q0 664 21 664H459Q478 664 478 645L479 576Z" />
<glyph unicode="U" glyph-name="U" horiz-adv-x="621" d="M566 648Q566 640 557 635T537 626T517 616T508 601V224Q508 168 492 126T446 56T375 14T283 0Q186 0 133 58T79 234V601Q79 611 70 616T50 626T29 635T20 649Q20 664 40 664H196Q215 664 215 649Q215
640 206 635T186 626T165 617T156 601V215Q156 55 308 58Q384 60 417 100T450 214V601Q450 610 441 615T421 625T401 635T390 648Q390 664 410 664L547 663Q566 663 566 648Z" />
<glyph unicode="V" glyph-name="V" horiz-adv-x="616" d="M581 649Q581 640 573 635T554 626T533 617T520 600L329 21Q321 0 303 0Q285 0 274 20L64 601Q61 611 51 616T29 625T9 635T0 649Q0 664 20 664H188Q207 664 207 649Q207 640 199 635T180 627T161 619T152
608Q152 605 153 604L302 176Q310 156 313 156Q316 156 321 176L467 602Q468 603 468 609Q468 616 461 620T444 628T428 636T420 649Q420 664 440 664H557Q581 664 581 649Z" />
<glyph unicode="W" glyph-name="W" horiz-adv-x="889" d="M854 649Q854 640 846 635T826 626T805 616T792 600L622 21Q616 0 594 0Q573 0 567 22L447 464Q441 484 436 484Q431 484 425 463L289 21Q283 0 263 0Q243 0 234 21L64 601Q61 610 51 615T30 625T9 635T0
649Q0 664 20 664H187Q206 664 206 649Q206 641 198 636T179 627T161 619T152 608Q152 605 153 604L266 180Q271 160 275 160Q279 160 285 180L412 598Q416 609 424 617T448 625Q463 625 472 618T483 603L594 178Q599 158 604 158Q609 158 615 178L739 603Q740
604 740 610Q740 617 733 621T716 628T700 636T692 649Q692 664 712 664H829Q854 664 854 649Z" />
<glyph unicode="X" glyph-name="X" horiz-adv-x="642" d="M587 649Q587 641 578 636T558 626T535 616T518 604L354 362Q346 351 346 341Q346 335 350 328L511 61Q516 52 527 48T551 39T572 29T581 15Q581 0 561 0H391Q372 0 372 15Q372 28 401 39L415 44Q424 44
424 49Q424 46 422 56L304 252Q298 262 293 262Q290 262 287 257L155 56Q152 51 152 49Q152 44 162 44L176 39Q191 34 198 29T206 15Q206 0 186 0H40Q20 0 20 15Q20 24 29 29T49 38T72 46T89 59L245 297Q248 302 250 308T253 320Q253 326 250 332L95 603Q91 610
80 615T56 625T35 635T25 649Q25 664 45 664H216Q235 664 235 649Q235 635 206 627L190 623Q182 620 182 616Q182 613 185 607L301 401Q304 394 309 394Q313 394 317 401L456 607Q459 611 459 615Q459 620 450 620L436 625Q422 630 414 634T406 649Q406 664 426
664H567Q587 664 587 649Z" />
<glyph unicode="Y" glyph-name="Y" horiz-adv-x="572" d="M537 649Q537 640 528 635T507 626T484 617T467 602L322 329Q310 307 312 296V64Q312 54 321 49T341 39T362 29T371 15Q371 0 351 0H195Q176 0 176 15Q176 24 185 29T205 38T225 48T234 63V297Q234 311
224 330L69 602Q64 611 53 616T30 625T9 635T0 649Q0 664 20 664H185Q205 664 205 649Q205 642 197 639T175 630L161 625Q154 624 154 616Q154 611 157 605L277 388Q282 380 286 380Q289 380 294 388L410 605Q413 611 413 615Q413 621 405 621L390 625Q375 629
368 636T361 649Q361 664 381 664H517Q537 664 537 649Z" />
<glyph unicode="Z" glyph-name="Z" horiz-adv-x="530" d="M475 20Q475 0 455 0H40Q20 0 20 20V39Q20 49 25 58T35 75L366 604Q367 605 367 608Q367 612 361 612H119Q104 612 96 603T83 583T74 563T60 554Q45 554 45 583V645Q45 664 65 664H440Q460 664 460 645V625Q460
614 455 605T445 588L114 59Q113 54 113 53T112 54Q112 51 119 51H400Q415 51 423 60T436 80T445 100T460 109Q465 109 469 102T474 80L475 20Z" />
<glyph unicode="[" glyph-name="bracketleft" horiz-adv-x="193" d="M138 0H20V723H138V664H79V59H138V0Z" />
<glyph unicode="\" glyph-name="backslash" horiz-adv-x="348" d="M293 0H235L20 723H79L293 0Z" />
<glyph unicode="]" glyph-name="bracketright" horiz-adv-x="193" d="M138 0H20V59H79V664H20V723H138V0Z" />
<glyph unicode="^" glyph-name="asciicircum" horiz-adv-x="273" d="M218 541H199L119 615L39 541H20L99 663H139L218 541Z" />
<glyph unicode="_" glyph-name="underscore" horiz-adv-x="563" d="M508 0H20V40H508V0Z" />
<glyph unicode="`" glyph-name="grave" horiz-adv-x="249" d="M194 540H168L43 617Q20 631 20 648Q20 660 27 667T48 675Q56 675 63 671T84 653L194 540Z" />
<glyph unicode="a" glyph-name="a" horiz-adv-x="464" d="M419 17Q417 0 389 0Q331 0 301 34Q234 0 167 0Q95 0 58 36T20 133Q20 174 37 203T85 251T160 279T257 288H273Q292 288 292 308V343Q292 397 267 425T194 454Q164 454 136 451T82 439Q62 441 62 454Q62
468 82 477Q119 496 194 496Q285 496 327 454T370 334V67Q370 54 377 48T394 38T411 30T419 17ZM292 235Q292 254 273 254Q174 250 134 221T93 136Q93 119 98 103T115 73T146 52T195 44Q238 44 272 54Q292 59 292 78V235Z" />
<glyph unicode="b" glyph-name="b" horiz-adv-x="521" d="M466 262Q466 211 452 164T409 81T337 22T236 0Q169 0 78 39L79 645Q79 656 70 659T50 663T29 667T20 679Q20 686 29 692T50 703T76 710T98 713H127Q157 713 157 694V479Q157 466 165 466Q169 466 176
470Q219 492 267 492Q311 492 347 474T410 425T451 352T466 262ZM390 261Q390 342 355 390T256 438Q247 438 230 437T197 431T168 418T156 398V82Q156 70 165 64T188 54T214 51T235 50Q266 50 294 63T344 103T377 169T390 261Z" />
<glyph unicode="c" glyph-name="c" horiz-adv-x="437" d="M382 46Q382 35 368 26T334 11T292 1T253 -3Q199 -3 156 14T83 64T36 140T20 237Q20 288 35 334T79 416T149 472T244 493Q287 493 362 473V395Q362 374 343 374Q333 374 327 383T314 404T301 427T284 444Q272
450 260 452T237 454Q209 454 184 438T140 393T110 325T99 237Q99 193 111 157T146 95T200 55T269 41Q309 41 362 59Q382 59 382 46Z" />
<glyph unicode="d" glyph-name="d" horiz-adv-x="502" d="M457 17Q457 0 428 0Q368 0 340 39Q302 19 269 8T203 -3Q153 -3 119 19T62 75T30 146T20 214Q20 259 32 308T69 400T135 469T233 496Q250 496 269 493T310 485Q311 485 312 485T314 484Q327 484 327 500V645Q327
655 319 658T300 663T281 667T271 679Q272 686 281 692T303 703T328 710T349 713H389Q408 713 408 693V68Q408 54 415 48T431 38T448 30T457 17ZM332 412Q332 427 316 434Q284 450 248 450Q219 450 194 435T149 390T118 320T107 229Q107 141 142 95T231 48Q240
48 257 49T290 55T319 68T332 88V412Z" />
<glyph unicode="e" glyph-name="e" horiz-adv-x="460" d="M405 252Q405 237 389 237H104Q104 195 113 160T141 99T186 59T246 44Q292 44 352 69Q372 69 372 56Q372 44 356 34T317 16T271 4T236 -1Q188 -1 148 17T80 69T36 149T20 249Q20 302 35 347T78 426T144
479T229 498Q317 498 361 434T405 252ZM336 296Q331 380 305 417T219 454Q166 454 141 412T108 296Q108 276 127 276H317Q338 276 336 296Z" />
<glyph unicode="f" glyph-name="f" horiz-adv-x="299" d="M284 644Q284 625 264 625Q210 625 184 596T157 498Q157 488 166 488H215Q235 488 235 464Q235 439 216 439H166Q157 439 157 429V63Q157 53 166 48T186 38T206 29T215 15Q215 0 196 0H40Q20 0 20 15Q20
24 29 29T49 38T70 47T79 63V421Q79 439 59 439H40Q20 439 20 464Q20 488 40 488H69Q79 488 79 498Q79 586 124 625T264 664Q284 664 284 644Z" />
<glyph unicode="g" glyph-name="g" horiz-adv-x="500" d="M445 -75Q445 -195 298 -195H137Q117 -195 97 -191T59 -176T31 -147T20 -98Q20 -68 33 -48T74 -11Q95 0 102 -1Q112 -1 118 -6T124 -17Q124 -22 118 -27T104 -41T90 -60T84 -85Q84 -108 104 -122T156 -137H298Q387
-137 387 -79Q387 -41 358 -21T278 0H200Q131 0 97 25T63 104Q63 158 103 180Q63 201 44 239T24 325Q24 406 75 451T226 496Q245 496 263 494T299 484L316 478L415 495Q434 495 434 475Q434 456 415 456L374 442Q396 420 405 389T414 327Q414 249 367 202T221 155Q206
155 190 157T154 163L143 154Q133 146 128 140T123 123Q123 100 143 89T200 78H278Q445 78 445 -75ZM335 329Q335 353 330 375T311 414T275 441T218 451Q195 451 167 440Q146 431 133 420T114 394T105 363T103 325Q103 302 107 280T123 239T158 210T219 198Q255
198 277 209T313 239T330 281T335 329Z" />
<glyph unicode="h" glyph-name="h" horiz-adv-x="553" d="M508 15Q508 0 488 0H332Q312 0 312 15Q312 24 321 29T342 38T362 48T372 63V329Q372 350 365 369T343 404T309 428T262 437Q217 437 157 407V63Q157 53 166 48T186 38T206 29T215 15Q215 0 196 0H40Q20
0 20 15Q20 24 29 29T49 38T70 47T79 63V645Q79 656 70 659T50 663T29 667T20 679Q20 686 29 692T50 703T76 710T98 713H137Q157 713 157 693V446Q226 494 293 494Q371 494 410 451T450 329L449 64Q449 54 458 49T478 39T499 29T508 15Z" />
<glyph unicode="i" glyph-name="i" horiz-adv-x="260" d="M157 585Q157 547 113 547Q70 547 69 586Q69 625 113 625Q157 625 157 585ZM215 15Q215 0 196 0H40Q20 0 20 15Q20 26 29 32T49 44T70 56T79 73V420Q79 431 70 434T50 439T29 443T20 454Q20 461 28 467T49
478T75 485T99 488H137Q157 488 157 469V74Q157 63 166 57T186 44T206 32T215 15Z" />
<glyph unicode="j" glyph-name="j" horiz-adv-x="214" d="M159 586Q159 547 116 547Q72 547 72 586Q72 606 82 615T116 625Q159 625 159 586ZM159 -59Q159 -125 132 -161T49 -198Q20 -198 -2 -193T-40 -180T-62 -166T-70 -156Q-70 -137 -50 -137Q-28 -144 7 -144Q81
-144 81 -78V420Q81 430 73 433T54 438T34 442T23 454Q23 462 32 468T53 479T79 486T101 488H140Q159 488 159 469V-59Z" />
<glyph unicode="k" glyph-name="k" horiz-adv-x="514" d="M469 20Q469 0 450 0H391Q372 0 357 15L169 202Q164 207 161 207Q157 207 157 195V63Q157 53 166 48T186 38T206 29T215 15Q215 0 196 0H40Q20 0 20 15Q20 24 29 29T49 38T70 47T79 63V645Q79 656 70 659T50
663T29 667T20 679Q20 686 29 692T50 703T76 710T98 713H137Q157 713 157 693V312Q157 300 161 300Q165 300 171 308L274 420Q281 427 281 434Q281 439 274 443T258 452T242 462T235 474Q235 488 254 488H391Q411 488 411 474Q411 465 403 459T382 448T357 436T333
420L213 291Q203 281 203 272Q203 266 209 260L402 62Q407 57 418 52T440 42T460 32T469 20Z" />
<glyph unicode="l" glyph-name="l" horiz-adv-x="260" d="M215 15Q215 0 196 0H40Q20 0 20 15Q20 24 29 29T49 38T70 47T79 63V645Q79 656 70 659T50 663T29 667T20 679Q20 686 29 692T50 703T76 710T98 713H137Q157 713 157 693V63Q157 53 166 48T186 38T206 29T215 15Z" />
<glyph unicode="m" glyph-name="m" horiz-adv-x="816" d="M771 15Q771 0 751 0H595Q576 0 576 15Q576 24 585 29T605 38T626 47T635 63V332Q635 352 629 371T609 407T578 432T536 442Q488 442 427 396Q432 382 433 366T435 332V64Q435 54 444 49T464 39T484 29T493
15Q493 0 474 0H317Q298 0 298 15Q298 24 307 29T327 38T348 48T357 63V332Q357 350 351 369T334 404T305 430T267 440Q244 440 217 427T157 392V64Q157 54 166 49T186 39T206 29T215 15Q215 0 196 0H40Q20 0 20 15Q20 24 29 29T49 38T70 48T79 63V420Q79 431 70
434T50 439T29 443T20 454Q20 461 28 467T49 478T75 485T99 488H137Q157 488 157 469V433Q192 463 227 480T297 497Q334 497 364 480T410 437Q493 499 564 499Q637 499 675 454T713 332L712 63Q712 53 721 48T741 38T762 29T771 15Z" />
<glyph unicode="n" glyph-name="n" horiz-adv-x="553" d="M508 15Q508 0 488 0H332Q312 0 312 15Q312 24 321 29T342 38T362 48T372 63V332Q372 350 367 369T350 403T323 427T285 437Q259 437 228 422T157 381V64Q157 54 166 49T186 39T206 29T215 15Q215 0 196
0H40Q20 0 20 15Q20 24 29 29T49 38T70 48T79 63V420Q79 431 70 434T50 439T29 443T20 454Q20 461 28 467T49 478T75 485T99 488H137Q157 488 157 469V420Q199 455 237 475T314 495Q381 495 415 450T450 332L449 64Q449 54 458 49T478 39T499 29T508 15Z" />
<glyph unicode="o" glyph-name="o" horiz-adv-x="495" d="M440 238Q440 184 425 139T383 62T317 11T230 -7Q183 -7 145 10T78 60T35 138T20 238Q20 326 53 389T147 477Q190 494 230 494Q275 494 313 477T380 426T424 346T440 238ZM360 234Q360 280 353 318T329
385T289 428T231 444Q202 444 177 431Q137 411 119 360T101 238Q101 198 108 164T131 103T171 62T230 47Q261 47 285 60T326 99T351 158T360 234Z" />
<glyph unicode="p" glyph-name="p" horiz-adv-x="522" d="M467 255Q467 202 453 155T413 73T352 18T273 -2Q247 -2 219 8T157 45V-132Q157 -142 166 -147T186 -157T206 -167T215 -181Q215 -196 196 -196H40Q20 -196 20 -181Q20 -172 29 -167T49 -158T70 -148T79
-132V419Q79 430 70 433T50 437T29 441T20 454Q20 461 29 467T50 478T75 485T98 488H137Q157 488 157 469V454Q192 474 223 485T285 496Q327 496 361 477T418 424T454 348T467 255ZM395 261Q395 298 386 331T361 390T322 431T270 446Q247 446 219 438T157 415V92Q189
68 214 58T261 48Q293 48 318 64T360 110T386 178T395 261Z" />
<glyph unicode="q" glyph-name="q" horiz-adv-x="503" d="M468 -181Q468 -196 449 -196H302Q283 -196 283 -181Q283 -172 291 -167T310 -158T329 -148T338 -132V32L336 38Q286 2 221 2Q177 2 140 20T77 70T35 142T20 229Q20 277 36 325T84 411T159 474T258 498Q324
498 409 449V-132Q409 -141 418 -146T438 -156T459 -166T468 -181ZM338 412Q338 424 327 431T302 442T274 448T253 450Q224 450 196 434T146 387T111 316T97 226Q97 186 108 153T139 97T186 61T243 48Q253 48 269 50T300 58T327 72T338 92V412Z" />
<glyph unicode="r" glyph-name="r" horiz-adv-x="388" d="M353 376Q353 368 349 365T338 362Q330 361 327 369T314 391L293 420Q274 436 252 436Q230 436 207 422T157 381V64Q157 54 166 49T186 39T206 29T215 15Q215 0 196 0H40Q20 0 20 15Q20 24 29 29T49 38T70
48T79 63V420Q79 431 70 434T50 439T29 443T20 454Q20 461 28 467T49 478T75 485T99 488H137Q157 488 157 469V420Q185 455 216 474T282 493Q303 493 342 479L352 381Q352 379 352 378T353 376Z" />
<glyph unicode="s" glyph-name="s" horiz-adv-x="421" d="M366 136Q366 67 322 33T193 -1Q158 -1 120 7T39 34L20 136Q20 152 44 152Q58 152 63 137L78 93Q88 71 111 56T174 41Q234 41 262 69T290 139Q290 190 163 236Q37 282 37 377Q37 434 79 465T200 497Q230
497 262 491T326 469L345 367Q345 352 326 352Q307 352 302 366L287 410Q273 432 256 446T208 460Q160 460 137 439T113 384Q113 325 240 279Q306 255 336 220T366 136Z" />
<glyph unicode="t" glyph-name="t" horiz-adv-x="348" d="M313 43Q313 31 301 23T271 9T236 0T208 -3Q146 -3 112 34T78 156V430Q78 438 69 440L40 439Q20 439 20 464Q20 476 25 483T40 489L59 488Q79 486 79 507V586Q79 595 80 608T87 633T101 655T127 664H137Q157
664 157 645V498Q157 488 166 488L245 489Q264 489 264 464Q264 440 245 440H166Q156 440 156 430V156Q156 90 176 68T238 45Q267 45 293 59Q295 59 296 59T299 60Q313 60 313 43Z" />
<glyph unicode="u" glyph-name="u" horiz-adv-x="553" d="M508 30Q508 22 499 16T477 5T451 -2T430 -5L396 -4Q372 -4 372 20V68Q294 -1 222 -1Q152 -1 116 44T79 166V420Q79 431 70 434T50 438T29 441T20 454Q20 461 28 467T50 478T78 485T108 488H137Q157 488
157 469V166Q157 146 163 126T181 91T210 66T251 56Q300 56 372 107V420Q372 431 363 434T343 438T322 441T313 454Q313 468 341 478T430 488Q449 488 449 469V63Q449 52 458 49T478 44T499 40T508 30Z" />
<glyph unicode="v" glyph-name="v" horiz-adv-x="489" d="M469 474Q469 465 460 460T440 450T417 437T401 417L254 0H225L68 417Q63 430 52 437T30 450T9 460T0 474Q2 488 20 488H176Q195 488 195 474Q195 466 187 461T169 452T151 443T142 431Q142 433 142 431T144
424L247 138Q250 127 254 127Q258 127 261 138L355 424Q356 425 356 430Q356 437 348 442T330 451T312 461T303 474Q312 488 322 488L450 489Q469 489 469 474Z" />
<glyph unicode="w" glyph-name="w" horiz-adv-x="723" d="M703 474Q703 465 694 460T673 450T650 437T635 417L506 0H477L369 333Q365 343 361 343Q357 343 354 333L234 0H206L68 417Q64 430 53 437T30 450T9 460T0 474Q2 488 20 488H176Q195 488 195 474Q195
466 187 461T169 452T151 443T143 431Q143 425 144 424L228 157Q231 146 235 146Q240 146 243 157L346 466Q353 488 372 488Q389 488 397 465L499 157Q502 146 506 146Q509 146 514 157L588 423Q589 424 589 430Q589 437 581 442T563 451T545 461T537 474Q537 488
556 488H684Q703 488 703 474Z" />
<glyph unicode="x" glyph-name="x" horiz-adv-x="544" d="M489 15Q489 0 470 0H293Q274 0 273 15Q274 28 303 39L317 44Q329 44 329 55Q329 53 329 55T327 62L244 198L234 184Q227 175 217 160T194 128T169 91T145 56Q142 51 142 49Q142 44 152 44L167 39Q196
30 196 15Q196 0 176 0H40Q20 0 20 14Q20 23 28 28T48 37T72 47T90 61L213 240L105 425Q97 434 85 439T60 448T39 458T30 474Q30 488 49 488H216Q235 488 235 474Q235 466 227 461T209 452T191 444T182 436Q182 438 182 437T184 431L259 303L344 431Q345 432 345
436Q345 440 337 443T319 451T301 460T293 473Q293 489 313 489H450Q468 489 470 474Q469 465 460 460T439 450T416 440T399 426L286 258L415 62Q423 53 435 48T460 39T480 29T489 15Z" />
<glyph unicode="y" glyph-name="y" horiz-adv-x="509" d="M474 474Q474 468 465 464T445 455T422 443T406 422L219 -113Q203 -159 178 -177T121 -196Q107 -196 90 -192T57 -180T32 -162T22 -139Q22 -123 40 -123Q49 -123 56 -127T72 -135T90 -144T116 -148Q134
-148 150 -136T175 -98L211 5L68 422Q63 435 52 442T30 454T9 463T0 474Q2 488 20 488H181Q200 488 200 474Q200 468 192 465T174 457T156 448T147 436Q147 438 147 436T149 429L244 144Q247 133 251 133Q256 133 259 144L355 429Q356 430 356 435Q356 443 348
448T330 457T312 464T303 474Q303 488 322 488L455 489Q474 489 474 474Z" />
<glyph unicode="z" glyph-name="z" horiz-adv-x="426" d="M352 0H40Q20 0 20 20Q20 30 22 37T30 52L274 437Q274 439 274 439T275 441Q275 442 276 443Q276 449 263 449H99Q88 449 81 440T69 420T57 400T40 391Q20 391 20 410L40 488H352Q371 488 371 468Q371
452 361 436L117 62Q115 52 115 55Q115 49 128 49H293Q303 49 309 58T322 78T334 98T352 107Q371 107 371 88L352 0Z" />
<glyph unicode="{" glyph-name="braceleft" horiz-adv-x="339" d="M284 -44Q284 -59 265 -59Q108 -59 108 127Q108 311 30 352Q20 356 20 361Q20 365 30 371Q108 410 108 595Q108 781 265 781Q284 781 284 767Q284 752 265 752Q183 745 183 620Q183 595 186 565T190
510Q190 388 108 366Q100 363 100 361Q100 359 108 356Q190 335 190 212Q190 188 187 158T183 102Q183 -22 265 -29Q284 -29 284 -44Z" />
<glyph unicode="|" glyph-name="bar" horiz-adv-x="134" d="M79 0H20V723H79V0Z" />
<glyph unicode="}" glyph-name="braceright" horiz-adv-x="339" d="M284 361Q284 356 274 352Q196 313 196 127Q196 -59 40 -59Q20 -59 20 -44Q20 -29 40 -29Q121 -22 121 102Q121 126 118 156T115 210Q115 335 196 356Q204 359 204 361Q204 363 196 366Q115 388
115 512Q115 536 118 566T121 620Q121 744 40 752Q20 752 20 767Q20 781 40 781Q196 781 196 595Q196 410 274 371Q284 365 284 361Z" />
<glyph unicode="~" glyph-name="asciitilde" horiz-adv-x="480" d="M425 353Q394 318 366 305T309 292Q297 292 273 299T222 316T171 332T136 340Q112 340 85 328T20 271V348Q52 383 80 396T136 409Q148 409 172 402T222 385T273 368T309 360Q332 360 360 373T425
429V353Z" />
</font>
</defs>
</svg>
